# xmcd
#
# Track frame offsets: 
#        150
#        15205
#        25667
#        36220
#        49625
#        62695
#        72475
#        83850
#        96065
#        106817
#        121302
#        131697
#        144337
#        156482
#        177395
#        189870
#        211100
#        226640
#        240480
#        254285
#        272102
#        285980
#        297545
#        311627
#        326162
#
# Disc length: 4469 seconds
#
# Revision: 1
# Processed by: cddbd v1.5.2PL0 Copyright (c) Steve Scherf et al.
# Submitted via: ExactAudioCopy v0.99pb3
#
DISCID=59117319
DTITLE=Hazlewood, Lee - Poet, Fool Or Bum
DYEAR=1997
DGENRE=Rock
TTITLE0=Poet
TTITLE1=Kari
TTITLE2=Feathers
TTITLE3=Performer
TTITLE4=Come Spend The Morning
TTITLE5=Wind, Sky, Sea and Sand
TTITLE6=Think I'm Coming Down
TTITLE7=Pray Them Bars Away
TTITLE8=Cold Hard Times
TTITLE9=The Night Before
TTITLE10=No Train To Stockholm
TTITLE11=Easy And Me
TTITLE12=Long Haired Country Boy
TTITLE13=The Ballad Of Lucy Jordan
TTITLE14=To Ramona
TTITLE15=Whole Lotta Shakin' Goin' On
TTITLE16=Back On The Street Again
TTITLE17=Your Thunder And Your Lightning
TTITLE18=Suddenly Tennessee
TTITLE19=A Rider On A White Horse
TTITLE20=Dolly Parton's Guitar
TTITLE21=Mother Country Music
TTITLE22=It's For My Dad
TTITLE23=Hello, Saturday Morning
TTITLE24=L.A. Lady
EXTD=
EXTT0=
EXTT1=
EXTT2=
EXTT3=
EXTT4=
EXTT5=
EXTT6=
EXTT7=
EXTT8=
EXTT9=
EXTT10=
EXTT11=
EXTT12=
EXTT13=
EXTT14=
EXTT15=
EXTT16=
EXTT17=
EXTT18=
EXTT19=
EXTT20=
EXTT21=
EXTT22=
EXTT23=
EXTT24=
PLAYORDER=
